<svg viewBox="0 0 760 656" xmlns="http://www.w3.org/2000/svg" font-family="ui-sans-serif, system-ui, -apple-system, Segoe UI, Roboto, sans-serif">
  <rect width="760" height="656" fill="#ffffff"/>
  <text x="382" y="30" text-anchor="middle" font-size="17" font-weight="700" fill="#0f172a">LIET curve — markout (claude-opus-4.8)</text>
  <line x1="100" y1="380" x2="664" y2="380" stroke="#334155" stroke-width="1.5"/>
  <line x1="100" y1="380" x2="100" y2="64" stroke="#334155" stroke-width="1.5"/>
  <text x="92" y="384" text-anchor="end" font-size="10.5" fill="#64748b">0</text>
  <line x1="100" y1="274.7" x2="664" y2="274.7" stroke="#e2e8f0" stroke-width="1"/>
  <text x="92" y="278.7" text-anchor="end" font-size="10.5" fill="#64748b">100k</text>
  <line x1="100" y1="169.3" x2="664" y2="169.3" stroke="#e2e8f0" stroke-width="1"/>
  <text x="92" y="173.3" text-anchor="end" font-size="10.5" fill="#64748b">200k</text>
  <line x1="100" y1="64" x2="664" y2="64" stroke="#e2e8f0" stroke-width="1"/>
  <text x="92" y="68" text-anchor="end" font-size="10.5" fill="#64748b">300k</text>
  <text x="382" y="438" text-anchor="middle" font-size="12" fill="#334155">rung (difficulty) →</text>
  <text x="46" y="222" text-anchor="middle" font-size="12" fill="#334155" transform="rotate(-90 46 222)">IET per correct answer (tokens) →</text>
  <line x1="664" y1="380" x2="664" y2="64" stroke="#94a3b8" stroke-width="1.2"/>
  <line x1="664" y1="274.7" x2="668" y2="274.7" stroke="#94a3b8" stroke-width="1"/>
  <text x="671" y="278.7" text-anchor="start" font-size="10" fill="#94a3b8">200s</text>
  <line x1="664" y1="169.3" x2="668" y2="169.3" stroke="#94a3b8" stroke-width="1"/>
  <text x="671" y="173.3" text-anchor="start" font-size="10" fill="#94a3b8">400s</text>
  <line x1="664" y1="64" x2="668" y2="64" stroke="#94a3b8" stroke-width="1"/>
  <text x="671" y="68" text-anchor="start" font-size="10" fill="#94a3b8">600s</text>
  <text x="708" y="222" text-anchor="middle" font-size="10.5" fill="#94a3b8" transform="rotate(-90 708 222)">wall-clock per question (s), all rungs →</text>
  <line x1="100" y1="339.3" x2="664" y2="339.3" stroke="#22c55e" stroke-width="1.4" stroke-dasharray="6 5" opacity="0.7"/>
  <text x="106" y="335.3" font-size="10" fill="#16a34a">floor 38.7k</text>
  <g font-size="11" fill="#475569">
    <line x1="112" y1="72" x2="134" y2="72" stroke="#dc2626" stroke-width="2.5"/><text x="140" y="76">baseline (archaeology only)</text>
    <line x1="112" y1="88" x2="134" y2="88" stroke="#2563eb" stroke-width="2.5"/><text x="140" y="92">SKILL.md</text>
    <line x1="112" y1="104" x2="134" y2="104" stroke="#c4a484" stroke-width="1.6" stroke-dasharray="4 3"/><text x="140" y="108" font-style="italic">baseline time · s, right axis</text>
    <line x1="112" y1="120" x2="134" y2="120" stroke="#5eaaa8" stroke-width="1.6" stroke-dasharray="4 3"/><text x="140" y="124" font-style="italic">grounded time · s, right axis</text>
  </g>
  <g font-size="11" fill="#64748b" text-anchor="middle">
    <text x="100" y="398">04</text>
    <text x="124" y="398">03</text>
    <text x="149" y="398">05</text>
    <text x="173" y="398">01</text>
    <text x="198" y="398">06</text>
    <text x="222" y="398">11</text>
    <text x="247" y="398">24</text>
    <text x="271" y="398">17</text>
    <text x="296" y="398">20</text>
    <text x="320" y="398">08</text>
    <text x="345" y="398">18</text>
    <text x="369" y="398">16</text>
    <text x="394" y="398">13</text>
    <text x="418" y="398">15</text>
    <text x="443" y="398">21</text>
    <text x="467" y="398">23</text>
    <text x="492" y="398">19</text>
    <text x="516" y="398">12</text>
    <text x="541" y="398">09</text>
    <text x="565" y="398">02</text>
    <text x="590" y="398">14</text>
    <text x="614" y="398">10</text>
    <text x="639" y="398">22</text>
    <text x="664" y="398">07</text>
  </g>
  <polyline points="100,366.8 124,366.8 149,365.8 173,367.4 198,346.3 222,347.9 247,343.7 271,341 296,302.6 320,338.4 345,336.3 369,320.5 394,328.9 418,322.1 443,327.3 467,329.4 492,326.3 516,296.8 541,250.4 565,102.4 590,244.6 614,218.3 639,83.5 664,254.7" fill="none" stroke="#c4a484" stroke-width="1.6" stroke-dasharray="4 3" opacity="0.85"/>
  <circle cx="100" cy="366.8" r="2" fill="#c4a484" opacity="0.85"/>
  <circle cx="124" cy="366.8" r="2" fill="#c4a484" opacity="0.85"/>
  <circle cx="149" cy="365.8" r="2" fill="#c4a484" opacity="0.85"/>
  <circle cx="173" cy="367.4" r="2" fill="#c4a484" opacity="0.85"/>
  <circle cx="198" cy="346.3" r="2" fill="#c4a484" opacity="0.85"/>
  <circle cx="222" cy="347.9" r="2" fill="#c4a484" opacity="0.85"/>
  <circle cx="247" cy="343.7" r="2" fill="#c4a484" opacity="0.85"/>
  <circle cx="271" cy="341" r="2" fill="#c4a484" opacity="0.85"/>
  <circle cx="296" cy="302.6" r="2" fill="#c4a484" opacity="0.85"/>
  <circle cx="320" cy="338.4" r="2" fill="#c4a484" opacity="0.85"/>
  <circle cx="345" cy="336.3" r="2" fill="#c4a484" opacity="0.85"/>
  <circle cx="369" cy="320.5" r="2" fill="#c4a484" opacity="0.85"/>
  <circle cx="394" cy="328.9" r="2" fill="#c4a484" opacity="0.85"/>
  <circle cx="418" cy="322.1" r="2" fill="#c4a484" opacity="0.85"/>
  <circle cx="443" cy="327.3" r="2" fill="#c4a484" opacity="0.85"/>
  <circle cx="467" cy="329.4" r="2" fill="#c4a484" opacity="0.85"/>
  <circle cx="492" cy="326.3" r="2" fill="#c4a484" opacity="0.85"/>
  <circle cx="516" cy="296.8" r="2" fill="#c4a484" opacity="0.85"/>
  <circle cx="541" cy="250.4" r="2" fill="#c4a484" opacity="0.85"/>
  <circle cx="565" cy="102.4" r="2" fill="#c4a484" opacity="0.85"/>
  <circle cx="590" cy="244.6" r="2" fill="#c4a484" opacity="0.85"/>
  <circle cx="614" cy="218.3" r="2" fill="#c4a484" opacity="0.85"/>
  <circle cx="639" cy="83.5" r="2" fill="#c4a484" opacity="0.85"/>
  <circle cx="664" cy="254.7" r="2" fill="white" stroke="#c4a484" stroke-width="1.2" opacity="0.85"/>
  <text x="660" y="248.7" text-anchor="end" font-size="10" font-style="italic" fill="#c4a484">baseline time</text>
  <polyline points="100,366.3 124,366.3 149,364.7 173,366.3 198,362.6 222,366.8 247,357.9 271,350 296,364.7 320,360.5 345,357.9 369,364.7 394,355.8 418,352.6 443,363.1 467,360.5 492,342.6 516,358.4 541,343.1 565,278.4 590,363.7 614,256.2 639,334.2 664,355.8" fill="none" stroke="#5eaaa8" stroke-width="1.6" stroke-dasharray="4 3" opacity="0.85"/>
  <circle cx="100" cy="366.3" r="2" fill="#5eaaa8" opacity="0.85"/>
  <circle cx="124" cy="366.3" r="2" fill="#5eaaa8" opacity="0.85"/>
  <circle cx="149" cy="364.7" r="2" fill="#5eaaa8" opacity="0.85"/>
  <circle cx="173" cy="366.3" r="2" fill="#5eaaa8" opacity="0.85"/>
  <circle cx="198" cy="362.6" r="2" fill="#5eaaa8" opacity="0.85"/>
  <circle cx="222" cy="366.8" r="2" fill="#5eaaa8" opacity="0.85"/>
  <circle cx="247" cy="357.9" r="2" fill="#5eaaa8" opacity="0.85"/>
  <circle cx="271" cy="350" r="2" fill="#5eaaa8" opacity="0.85"/>
  <circle cx="296" cy="364.7" r="2" fill="#5eaaa8" opacity="0.85"/>
  <circle cx="320" cy="360.5" r="2" fill="#5eaaa8" opacity="0.85"/>
  <circle cx="345" cy="357.9" r="2" fill="#5eaaa8" opacity="0.85"/>
  <circle cx="369" cy="364.7" r="2" fill="#5eaaa8" opacity="0.85"/>
  <circle cx="394" cy="355.8" r="2" fill="#5eaaa8" opacity="0.85"/>
  <circle cx="418" cy="352.6" r="2" fill="#5eaaa8" opacity="0.85"/>
  <circle cx="443" cy="363.1" r="2" fill="#5eaaa8" opacity="0.85"/>
  <circle cx="467" cy="360.5" r="2" fill="#5eaaa8" opacity="0.85"/>
  <circle cx="492" cy="342.6" r="2" fill="#5eaaa8" opacity="0.85"/>
  <circle cx="516" cy="358.4" r="2" fill="#5eaaa8" opacity="0.85"/>
  <circle cx="541" cy="343.1" r="2" fill="#5eaaa8" opacity="0.85"/>
  <circle cx="565" cy="278.4" r="2" fill="#5eaaa8" opacity="0.85"/>
  <circle cx="590" cy="363.7" r="2" fill="#5eaaa8" opacity="0.85"/>
  <circle cx="614" cy="256.2" r="2" fill="#5eaaa8" opacity="0.85"/>
  <circle cx="639" cy="334.2" r="2" fill="#5eaaa8" opacity="0.85"/>
  <circle cx="664" cy="355.8" r="2" fill="#5eaaa8" opacity="0.85"/>
  <text x="660" y="349.8" text-anchor="end" font-size="10" font-style="italic" fill="#5eaaa8">SKILL time</text>
  <polyline points="100,348.7 124,348.5 149,348.2 173,345.3 198,323.9 222,321.1 247,315.1 271,308 296,305.4 320,305 345,303.5 369,299.5 394,298.7 418,293.9 443,293.6 467,286.4 492,285.7 516,235 541,233.7 565,233 590,233 614,146.8 639,77.5" fill="none" stroke="#dc2626" stroke-width="2.5"/>
  <circle cx="100" cy="348.7" r="3.5" fill="#dc2626"/>
  <circle cx="124" cy="348.5" r="3.5" fill="#dc2626"/>
  <circle cx="149" cy="348.2" r="3.5" fill="#dc2626"/>
  <circle cx="173" cy="345.3" r="3.5" fill="#dc2626"/>
  <circle cx="198" cy="323.9" r="3.5" fill="#dc2626"/>
  <circle cx="222" cy="321.1" r="3.5" fill="#dc2626"/>
  <circle cx="247" cy="315.1" r="3.5" fill="#dc2626"/>
  <circle cx="271" cy="308" r="3.5" fill="#dc2626"/>
  <circle cx="296" cy="305.4" r="3.5" fill="#dc2626"/>
  <circle cx="320" cy="305" r="3.5" fill="#dc2626"/>
  <circle cx="345" cy="303.5" r="3.5" fill="#dc2626"/>
  <circle cx="369" cy="299.5" r="3.5" fill="#dc2626"/>
  <circle cx="394" cy="298.7" r="3.5" fill="#dc2626"/>
  <circle cx="418" cy="293.9" r="3.5" fill="#dc2626"/>
  <circle cx="443" cy="293.6" r="3.5" fill="#dc2626"/>
  <circle cx="467" cy="286.4" r="3.5" fill="#dc2626"/>
  <circle cx="492" cy="285.7" r="3.5" fill="#dc2626"/>
  <circle cx="516" cy="235" r="3.5" fill="#dc2626"/>
  <circle cx="541" cy="233.7" r="3.5" fill="#dc2626"/>
  <circle cx="565" cy="233" r="3.5" fill="#dc2626"/>
  <circle cx="590" cy="233" r="3.5" fill="#dc2626"/>
  <circle cx="614" cy="146.8" r="3.5" fill="#dc2626"/>
  <circle cx="639" cy="77.5" r="3.5" fill="#dc2626"/>
  <text x="635" y="69.5" text-anchor="end" font-size="11.5" font-weight="700" fill="#dc2626">baseline</text>
  <polyline points="100,346.5 124,345.8 149,341.1 173,340.2 198,339.2 222,341.3 247,323.9 271,313.6 296,339 320,329 345,329.7 369,341.4 394,323.6 418,320.8 443,336.9 467,330.4 492,309.6 516,331.4 541,308.4 565,308.2 590,337.7 614,212.6 639,293.6 664,325" fill="none" stroke="#2563eb" stroke-width="2.5"/>
  <circle cx="100" cy="346.5" r="4" fill="#ffffff" stroke="#2563eb" stroke-width="2"/>
  <circle cx="124" cy="345.8" r="4" fill="#ffffff" stroke="#2563eb" stroke-width="2"/>
  <circle cx="149" cy="341.1" r="4" fill="#ffffff" stroke="#2563eb" stroke-width="2"/>
  <circle cx="173" cy="340.2" r="4" fill="#ffffff" stroke="#2563eb" stroke-width="2"/>
  <circle cx="198" cy="339.2" r="4" fill="#2563eb"/>
  <circle cx="222" cy="341.3" r="4" fill="#2563eb"/>
  <circle cx="247" cy="323.9" r="4" fill="#2563eb"/>
  <circle cx="271" cy="313.6" r="4" fill="#2563eb"/>
  <circle cx="296" cy="339" r="4" fill="#2563eb"/>
  <circle cx="320" cy="329" r="4" fill="#2563eb"/>
  <circle cx="345" cy="329.7" r="4" fill="#2563eb"/>
  <circle cx="369" cy="341.4" r="4" fill="#2563eb"/>
  <circle cx="394" cy="323.6" r="4" fill="#2563eb"/>
  <circle cx="418" cy="320.8" r="4" fill="#2563eb"/>
  <circle cx="443" cy="336.9" r="4" fill="#2563eb"/>
  <circle cx="467" cy="330.4" r="4" fill="#2563eb"/>
  <circle cx="492" cy="309.6" r="4" fill="#2563eb"/>
  <circle cx="516" cy="331.4" r="4" fill="#2563eb"/>
  <circle cx="541" cy="308.4" r="4" fill="#2563eb"/>
  <circle cx="565" cy="308.2" r="4" fill="#2563eb"/>
  <circle cx="590" cy="337.7" r="4" fill="#2563eb"/>
  <circle cx="614" cy="212.6" r="4" fill="#2563eb"/>
  <circle cx="639" cy="293.6" r="4" fill="#2563eb"/>
  <circle cx="664" cy="325" r="4" fill="#2563eb"/>
  <text x="660" y="317" text-anchor="end" font-size="11.5" font-weight="700" fill="#2563eb">SKILL.md</text>
  <g font-size="8" font-weight="700" fill="#0891b2" text-anchor="middle">
    <text x="149" y="354.1">M 4</text>
    <text x="173" y="353.2">M</text>
    <text x="198" y="352.2">M</text>
    <text x="222" y="354.3">2</text>
    <text x="247" y="336.9">M 3</text>
    <text x="271" y="326.6">M 3</text>
    <text x="296" y="352">M 1</text>
    <text x="320" y="342">M 3</text>
    <text x="345" y="342.7">M 3</text>
    <text x="369" y="354.4">2</text>
    <text x="394" y="336.6">M 3</text>
    <text x="418" y="333.8">M 1 4</text>
    <text x="443" y="349.9">M 2</text>
    <text x="467" y="343.4">M 2 4</text>
    <text x="492" y="322.6">M 4</text>
    <text x="516" y="344.4">M 3</text>
    <text x="541" y="321.4">4</text>
    <text x="565" y="321.2">M</text>
    <text x="590" y="350.7">M 4</text>
    <text x="614" y="225.6">M 1 4</text>
    <text x="639" y="306.6">M 3</text>
    <text x="664" y="338">M 3</text>
  </g>
  <g font-size="10.5" fill="#475569">
    <circle cx="112" cy="462" r="4" fill="none" stroke="#2563eb" stroke-width="2"/><text x="122" y="466">SKILL over ceiling (harm)</text>
    <circle cx="290" cy="462" r="4" fill="#2563eb"/><text x="300" y="466">SKILL under ceiling (pays its way)</text>
    <text x="540" y="466" font-style="italic">failed rungs not plotted</text>
  </g>
  <text x="112" y="484" font-size="9.5" font-weight="700" fill="#0891b2">skills pulled (id under each SKILL dot):</text>
  <g font-size="9.5" fill="#0891b2">
    <text x="120" y="498">• <tspan font-weight="700">M</tspan> = markout (×19)</text>
    <text x="120" y="512">• <tspan font-weight="700">1</tspan> = built-in-shapes (pull ×3)</text>
    <text x="120" y="526">• <tspan font-weight="700">2</tspan> = composite-cells-cards (pull ×4)</text>
    <text x="120" y="540">• <tspan font-weight="700">3</tspan> = conditional-composition (pull ×8)</text>
    <text x="120" y="554">• <tspan font-weight="700">4</tspan> = output-formats (pull ×7)</text>
  </g>
  <text x="112" y="574" font-size="9.5" font-weight="700" fill="#334155">Metrics:</text>
  <g font-size="9.5" fill="#334155">
    <text x="120" y="588">• Correct answers: 23→24/24</text>
    <text x="120" y="602">• Floor LIET: 38.7k</text>
    <text x="120" y="616">• LIET: 56k→15.4k (Δ −40.6k)</text>
    <text x="120" y="630">• Levelized duration: 116.9s→19s (Δ −97.8s)</text>
    <text x="120" y="644">• Archaeology operations: 81→2.4 (-97%)</text>
  </g>
</svg>
